<svg xmlns="http://www.w3.org/2000/svg" width="1200" height="630" viewBox="0 0 1200 630">
<defs><radialGradient id="g" cx="50%" cy="20%" r="62%">
<stop offset="0%" stop-color="#F2B441" stop-opacity="0.24"/><stop offset="42%" stop-color="#F2B441" stop-opacity="0.06"/><stop offset="66%" stop-color="#F2B441" stop-opacity="0"/></radialGradient></defs>
<rect width="1200" height="630" fill="#0B0F14"/><rect width="1200" height="630" fill="url(#g)"/>
<g transform="translate(546.36 79.00) scale(0.8939)"><path d="M54 20 C48 6 41 3 34 5" stroke="#E8EEF5" stroke-width="4.2" stroke-linecap="round" fill="none"/><path d="M66 20 C72 6 79 3 86 5" stroke="#E8EEF5" stroke-width="4.2" stroke-linecap="round" fill="none"/><circle cx="33" cy="5" r="4.4" fill="#F2B441" stroke="#E8EEF5" stroke-width="3"/><circle cx="87" cy="5" r="4.4" fill="#F2B441" stroke="#E8EEF5" stroke-width="3"/><ellipse cx="36" cy="54" rx="19" ry="26" fill="#3a3526" stroke="#E8EEF5" stroke-width="4.2" transform="rotate(-24 36 54)"/><ellipse cx="84" cy="54" rx="19" ry="26" fill="#3a3526" stroke="#E8EEF5" stroke-width="4.2" transform="rotate(24 84 54)"/><rect x="40" y="44" width="40" height="72" rx="20" fill="#F2B441" stroke="#E8EEF5" stroke-width="4.2"/><g clip-path="url(#ob)"><rect x="36" y="66" width="48" height="12" fill="#E8EEF5"/><rect x="36" y="90" width="48" height="12" fill="#E8EEF5"/></g><clipPath id="ob"><rect x="40" y="44" width="40" height="72" rx="20"/></clipPath><circle cx="60" cy="31" r="17" fill="#E8EEF5"/><circle cx="53" cy="29" r="3.4" fill="#0B0F14"/><circle cx="67" cy="29" r="3.4" fill="#0B0F14"/></g>
<rect x="300.0" y="232" width="600" height="40" rx="20" fill="none" stroke="rgba(242,180,65,.32)"/>
<text x="600.0" y="259" text-anchor="middle" font-family="'JetBrains Mono', monospace" font-size="20" letter-spacing="2" fill="#e7c98a">POWERED BY NVIDIA BLACKWELL · SELF-FUNDED</text>
<text x="600.0" y="368" text-anchor="middle" font-family="Inter, 'Liberation Sans', Arial, sans-serif" font-weight="800" font-size="62" letter-spacing="-2" fill="#E8EEF5">The first dedicated</text>
<text x="600.0" y="446" text-anchor="middle" font-family="Inter, 'Liberation Sans', Arial, sans-serif" font-weight="800" font-size="62" letter-spacing="-2" fill="#F2B441">diabetic-compute-engine.</text>
<text x="600.0" y="528" text-anchor="middle" font-family="Inter, 'Liberation Sans', Arial, sans-serif" font-weight="600" font-size="26" fill="#9aa7b3">Compute in, help out. Built for them.</text>
<text x="600.0" y="578" text-anchor="middle" font-family="'JetBrains Mono', monospace" font-size="19" letter-spacing="1" fill="#7d8893">opendiabetic.com</text>
</svg>